<?xml version="1.0" encoding="UTF-8" standalone="no"?>
<!DOCTYPE svg PUBLIC "-//W3C//DTD SVG 1.1//EN"
 "http://www.w3.org/Graphics/SVG/1.1/DTD/svg11.dtd">
<!-- Generated by graphviz version 15.0.0 (20260523.1842)
 -->
<!-- Title: pipeline Pages: 1 -->
<svg width="1256pt" height="208pt"
 viewBox="0.00 0.00 1256.00 208.00" xmlns="http://www.w3.org/2000/svg" xmlns:xlink="http://www.w3.org/1999/xlink">
<g id="graph0" class="graph" transform="scale(1 1) rotate(0) translate(4 204)">
<title>pipeline</title>
<polygon fill="white" stroke="none" points="-4,4 -4,-204 1251.5,-204 1251.5,4 -4,4"/>
<!-- cob -->
<g id="node1" class="node">
<title>cob</title>
<path fill="#e5e7eb" stroke="black" d="M97,-120C97,-120 12,-120 12,-120 6,-120 0,-114 0,-108 0,-108 0,-94 0,-94 0,-88 6,-82 12,-82 12,-82 97,-82 97,-82 103,-82 109,-88 109,-94 109,-94 109,-108 109,-108 109,-114 103,-120 97,-120"/>
<text xml:space="preserve" text-anchor="start" x="8" y="-102.7" font-family="Helvetica,sans-Serif" font-size="14.00">COBOL source</text>
<text xml:space="preserve" text-anchor="start" x="8" y="-87.7" font-family="Helvetica,sans-Serif" font-size="14.00">(fixed&#45;format)</text>
</g>
<!-- norm -->
<g id="node2" class="node">
<title>norm</title>
<path fill="#e5e7eb" stroke="black" d="M272.75,-120C272.75,-120 157,-120 157,-120 151,-120 145,-114 145,-108 145,-108 145,-94 145,-94 145,-88 151,-82 157,-82 157,-82 272.75,-82 272.75,-82 278.75,-82 284.75,-88 284.75,-94 284.75,-94 284.75,-108 284.75,-108 284.75,-114 278.75,-120 272.75,-120"/>
<text xml:space="preserve" text-anchor="start" x="153" y="-102.7" font-family="Helvetica,sans-Serif" font-size="14.00">normalise + lex</text>
<text xml:space="preserve" text-anchor="start" x="153" y="-87.7" font-family="Helvetica,sans-Serif" font-size="14.00">(strip cols 1&#45;6/73&#45;80)</text>
</g>
<!-- cob&#45;&gt;norm -->
<g id="edge4" class="edge">
<title>cob&#45;&gt;norm</title>
<path fill="none" stroke="black" d="M109.12,-101C116.86,-101 124.98,-101 133.11,-101"/>
<polygon fill="black" stroke="black" points="133.08,-104.5 143.08,-101 133.08,-97.5 133.08,-104.5"/>
</g>
<!-- ast -->
<g id="node3" class="node">
<title>ast</title>
<path fill="#dbeafe" stroke="black" d="M483,-120C483,-120 332.75,-120 332.75,-120 326.75,-120 320.75,-114 320.75,-108 320.75,-108 320.75,-94 320.75,-94 320.75,-88 326.75,-82 332.75,-82 332.75,-82 483,-82 483,-82 489,-82 495,-88 495,-94 495,-94 495,-108 495,-108 495,-114 489,-120 483,-120"/>
<text xml:space="preserve" text-anchor="start" x="328.75" y="-102.7" font-family="Helvetica,sans-Serif" font-size="14.00">Stage&#45;1 AST</text>
<text xml:space="preserve" text-anchor="start" x="328.75" y="-87.7" font-family="Helvetica,sans-Serif" font-size="14.00">root=Program, tier=simple</text>
</g>
<!-- norm&#45;&gt;ast -->
<g id="edge5" class="edge">
<title>norm&#45;&gt;ast</title>
<path fill="none" stroke="black" d="M285.1,-101C292.86,-101 300.88,-101 308.92,-101"/>
<polygon fill="black" stroke="black" points="308.76,-104.5 318.76,-101 308.76,-97.5 308.76,-104.5"/>
</g>
<!-- n0 -->
<g id="node4" class="node">
<title>n0</title>
<path fill="#eff6ff" stroke="black" d="M638.12,-200C638.12,-200 598.88,-200 598.88,-200 592.88,-200 586.88,-194 586.88,-188 586.88,-188 586.88,-176 586.88,-176 586.88,-170 592.88,-164 598.88,-164 598.88,-164 638.12,-164 638.12,-164 644.12,-164 650.12,-170 650.12,-176 650.12,-176 650.12,-188 650.12,-188 650.12,-194 644.12,-200 638.12,-200"/>
<text xml:space="preserve" text-anchor="middle" x="618.5" y="-176.2" font-family="Helvetica,sans-Serif" font-size="14.00">Division</text>
</g>
<!-- ast&#45;&gt;n0 -->
<g id="edge1" class="edge">
<title>ast&#45;&gt;n0</title>
<path fill="none" stroke="black" d="M449.66,-120.43C473.17,-131.27 503.44,-144.64 531,-155 545.29,-160.37 561.18,-165.55 575.4,-169.91"/>
<polygon fill="black" stroke="black" points="574.35,-173.25 584.94,-172.78 576.37,-166.55 574.35,-173.25"/>
</g>
<!-- n1 -->
<g id="node5" class="node">
<title>n1</title>
<path fill="#eff6ff" stroke="black" d="M638.12,-146C638.12,-146 598.88,-146 598.88,-146 592.88,-146 586.88,-140 586.88,-134 586.88,-134 586.88,-122 586.88,-122 586.88,-116 592.88,-110 598.88,-110 598.88,-110 638.12,-110 638.12,-110 644.12,-110 650.12,-116 650.12,-122 650.12,-122 650.12,-134 650.12,-134 650.12,-140 644.12,-146 638.12,-146"/>
<text xml:space="preserve" text-anchor="middle" x="618.5" y="-122.2" font-family="Helvetica,sans-Serif" font-size="14.00">Division</text>
</g>
<!-- ast&#45;&gt;n1 -->
<g id="edge2" class="edge">
<title>ast&#45;&gt;n1</title>
<path fill="none" stroke="black" d="M495.24,-112.18C523.05,-115.78 552.61,-119.6 575.7,-122.59"/>
<polygon fill="black" stroke="black" points="574.94,-126.02 585.31,-123.83 575.84,-119.08 574.94,-126.02"/>
</g>
<!-- n2 -->
<g id="node6" class="node">
<title>n2</title>
<path fill="#eff6ff" stroke="black" d="M638.12,-92C638.12,-92 598.88,-92 598.88,-92 592.88,-92 586.88,-86 586.88,-80 586.88,-80 586.88,-68 586.88,-68 586.88,-62 592.88,-56 598.88,-56 598.88,-56 638.12,-56 638.12,-56 644.12,-56 650.12,-62 650.12,-68 650.12,-68 650.12,-80 650.12,-80 650.12,-86 644.12,-92 638.12,-92"/>
<text xml:space="preserve" text-anchor="middle" x="618.5" y="-68.2" font-family="Helvetica,sans-Serif" font-size="14.00">Division</text>
</g>
<!-- ast&#45;&gt;n2 -->
<g id="edge3" class="edge">
<title>ast&#45;&gt;n2</title>
<path fill="none" stroke="black" d="M495.24,-89.82C523.05,-86.22 552.61,-82.4 575.7,-79.41"/>
<polygon fill="black" stroke="black" points="575.84,-82.92 585.31,-78.17 574.94,-75.98 575.84,-82.92"/>
</g>
<!-- prompt -->
<g id="node7" class="node">
<title>prompt</title>
<path fill="#fef9c3" stroke="black" d="M694,-38C694,-38 543,-38 543,-38 537,-38 531,-32 531,-26 531,-26 531,-12 531,-12 531,-6 537,0 543,0 543,0 694,0 694,0 700,0 706,-6 706,-12 706,-12 706,-26 706,-26 706,-32 700,-38 694,-38"/>
<text xml:space="preserve" text-anchor="start" x="539" y="-20.7" font-family="Helvetica,sans-Serif" font-size="14.00">PromptBuilder</text>
<text xml:space="preserve" text-anchor="start" x="539" y="-5.7" font-family="Helvetica,sans-Serif" font-size="14.00">linearised AST + tier token</text>
</g>
<!-- ast&#45;&gt;prompt -->
<g id="edge6" class="edge">
<title>ast&#45;&gt;prompt</title>
<path fill="none" stroke="black" d="M449.98,-81.55C473.46,-70.77 503.6,-57.46 531,-47 535.31,-45.35 539.77,-43.72 544.28,-42.11"/>
<polygon fill="black" stroke="black" points="545.14,-45.52 553.44,-38.92 542.84,-38.91 545.14,-45.52"/>
</g>
<!-- enc -->
<g id="node8" class="node">
<title>enc</title>
<path fill="#dcfce7" stroke="black" d="M860,-38C860,-38 754,-38 754,-38 748,-38 742,-32 742,-26 742,-26 742,-12 742,-12 742,-6 748,0 754,0 754,0 860,0 860,0 866,0 872,-6 872,-12 872,-12 872,-26 872,-26 872,-32 866,-38 860,-38"/>
<text xml:space="preserve" text-anchor="start" x="750" y="-20.7" font-family="Helvetica,sans-Serif" font-size="14.00">CodeT5+ encoder</text>
<text xml:space="preserve" text-anchor="start" x="750" y="-5.7" font-family="Helvetica,sans-Serif" font-size="14.00">(transformer stack)</text>
</g>
<!-- prompt&#45;&gt;enc -->
<g id="edge7" class="edge">
<title>prompt&#45;&gt;enc</title>
<path fill="none" stroke="black" d="M706.47,-19C714.45,-19 722.48,-19 730.35,-19"/>
<polygon fill="black" stroke="black" points="730.2,-22.5 740.2,-19 730.2,-15.5 730.2,-22.5"/>
</g>
<!-- dec -->
<g id="node9" class="node">
<title>dec</title>
<path fill="#dcfce7" stroke="black" d="M1054.5,-38C1054.5,-38 920,-38 920,-38 914,-38 908,-32 908,-26 908,-26 908,-12 908,-12 908,-6 914,0 920,0 920,0 1054.5,0 1054.5,0 1060.5,0 1066.5,-6 1066.5,-12 1066.5,-12 1066.5,-26 1066.5,-26 1066.5,-32 1060.5,-38 1054.5,-38"/>
<text xml:space="preserve" text-anchor="start" x="916" y="-20.7" font-family="Helvetica,sans-Serif" font-size="14.00">CodeT5+ decoder</text>
<text xml:space="preserve" text-anchor="start" x="916" y="-5.7" font-family="Helvetica,sans-Serif" font-size="14.00">tier&#45;aware beam search</text>
</g>
<!-- enc&#45;&gt;dec -->
<g id="edge8" class="edge">
<title>enc&#45;&gt;dec</title>
<path fill="none" stroke="black" d="M872.35,-19C880.15,-19 888.22,-19 896.29,-19"/>
<polygon fill="black" stroke="black" points="896.18,-22.5 906.18,-19 896.18,-15.5 896.18,-22.5"/>
</g>
<!-- py -->
<g id="node10" class="node">
<title>py</title>
<path fill="#bbf7d0" stroke="black" d="M1235.5,-38C1235.5,-38 1114.5,-38 1114.5,-38 1108.5,-38 1102.5,-32 1102.5,-26 1102.5,-26 1102.5,-12 1102.5,-12 1102.5,-6 1108.5,0 1114.5,0 1114.5,0 1235.5,0 1235.5,0 1241.5,0 1247.5,-6 1247.5,-12 1247.5,-12 1247.5,-26 1247.5,-26 1247.5,-32 1241.5,-38 1235.5,-38"/>
<text xml:space="preserve" text-anchor="start" x="1110.5" y="-20.7" font-family="Helvetica,sans-Serif" font-size="14.00">Python 3</text>
<text xml:space="preserve" text-anchor="start" x="1110.5" y="-5.7" font-family="Helvetica,sans-Serif" font-size="14.00">(idiomatic translation)</text>
</g>
<!-- dec&#45;&gt;py -->
<g id="edge9" class="edge">
<title>dec&#45;&gt;py</title>
<path fill="none" stroke="black" d="M1066.76,-19C1074.76,-19 1082.92,-19 1090.97,-19"/>
<polygon fill="black" stroke="black" points="1090.76,-22.5 1100.76,-19 1090.76,-15.5 1090.76,-22.5"/>
</g>
</g>
</svg>
