<?xml version="1.0" encoding="UTF-8" standalone="no"?>
<!DOCTYPE svg PUBLIC "-//W3C//DTD SVG 1.1//EN"
 "http://www.w3.org/Graphics/SVG/1.1/DTD/svg11.dtd">
<!-- Generated by graphviz version 15.0.0 (20260523.1842)
 -->
<!-- Title: curriculum Pages: 1 -->
<svg width="666pt" height="466pt"
 viewBox="0.00 0.00 666.00 466.00" xmlns="http://www.w3.org/2000/svg" xmlns:xlink="http://www.w3.org/1999/xlink">
<g id="graph0" class="graph" transform="scale(1 1) rotate(0) translate(4 461.5)">
<title>curriculum</title>
<polygon fill="white" stroke="none" points="-4,4 -4,-461.5 661.5,-461.5 661.5,4 -4,4"/>
<!-- root -->
<g id="node1" class="node">
<title>root</title>
<path fill="#1f2937" stroke="black" d="M307.12,-457.5C307.12,-457.5 145.62,-457.5 145.62,-457.5 139.62,-457.5 133.62,-451.5 133.62,-445.5 133.62,-445.5 133.62,-433.5 133.62,-433.5 133.62,-427.5 139.62,-421.5 145.62,-421.5 145.62,-421.5 307.12,-421.5 307.12,-421.5 313.12,-421.5 319.12,-427.5 319.12,-433.5 319.12,-433.5 319.12,-445.5 319.12,-445.5 319.12,-451.5 313.12,-457.5 307.12,-457.5"/>
<text xml:space="preserve" text-anchor="middle" x="226.38" y="-433.7" font-family="Helvetica,sans-Serif" font-size="14.00" fill="white">Two&#45;dimensional curriculum</text>
</g>
<!-- axisL -->
<g id="node2" class="node">
<title>axisL</title>
<path fill="#dbeafe" stroke="black" d="M202.38,-384.5C202.38,-384.5 12.38,-384.5 12.38,-384.5 6.38,-384.5 0.38,-378.5 0.38,-372.5 0.38,-372.5 0.38,-358.5 0.38,-358.5 0.38,-352.5 6.38,-346.5 12.38,-346.5 12.38,-346.5 202.38,-346.5 202.38,-346.5 208.38,-346.5 214.38,-352.5 214.38,-358.5 214.38,-358.5 214.38,-372.5 214.38,-372.5 214.38,-378.5 208.38,-384.5 202.38,-384.5"/>
<text xml:space="preserve" text-anchor="start" x="8.38" y="-367.2" font-family="Helvetica,sans-Serif" font-size="14.00">Axis 1: language similarity</text>
<text xml:space="preserve" text-anchor="start" x="8.38" y="-352.2" font-family="Helvetica,sans-Serif" font-size="14.00">(high&#45;resource source &#45;&gt; Python)</text>
</g>
<!-- root&#45;&gt;axisL -->
<g id="edge1" class="edge">
<title>root&#45;&gt;axisL</title>
<path fill="none" stroke="black" d="M197.57,-421.07C182.39,-411.89 163.54,-400.48 147,-390.48"/>
<polygon fill="black" stroke="black" points="149.24,-387.74 138.87,-385.56 145.62,-393.73 149.24,-387.74"/>
</g>
<!-- axisC -->
<g id="node3" class="node">
<title>axisC</title>
<path fill="#dcfce7" stroke="black" d="M450.25,-384.5C450.25,-384.5 244.5,-384.5 244.5,-384.5 238.5,-384.5 232.5,-378.5 232.5,-372.5 232.5,-372.5 232.5,-358.5 232.5,-358.5 232.5,-352.5 238.5,-346.5 244.5,-346.5 244.5,-346.5 450.25,-346.5 450.25,-346.5 456.25,-346.5 462.25,-352.5 462.25,-358.5 462.25,-358.5 462.25,-372.5 462.25,-372.5 462.25,-378.5 456.25,-384.5 450.25,-384.5"/>
<text xml:space="preserve" text-anchor="start" x="240.5" y="-367.2" font-family="Helvetica,sans-Serif" font-size="14.00">Axis 2: AST complexity tier</text>
<text xml:space="preserve" text-anchor="start" x="240.5" y="-352.2" font-family="Helvetica,sans-Serif" font-size="14.00">(easy &#45;&gt; hard, gated on val plateau)</text>
</g>
<!-- root&#45;&gt;axisC -->
<g id="edge2" class="edge">
<title>root&#45;&gt;axisC</title>
<path fill="none" stroke="black" d="M255.67,-421.07C271.1,-411.89 290.27,-400.48 307.08,-390.48"/>
<polygon fill="black" stroke="black" points="308.56,-393.67 315.36,-385.55 304.98,-387.65 308.56,-393.67"/>
</g>
<!-- p1 -->
<g id="node4" class="node">
<title>p1</title>
<path fill="#eff6ff" stroke="black" d="M202.75,-309.5C202.75,-309.5 12,-309.5 12,-309.5 6,-309.5 0,-303.5 0,-297.5 0,-297.5 0,-283.5 0,-283.5 0,-277.5 6,-271.5 12,-271.5 12,-271.5 202.75,-271.5 202.75,-271.5 208.75,-271.5 214.75,-277.5 214.75,-283.5 214.75,-283.5 214.75,-297.5 214.75,-297.5 214.75,-303.5 208.75,-309.5 202.75,-309.5"/>
<text xml:space="preserve" text-anchor="start" x="8" y="-292.2" font-family="Helvetica,sans-Serif" font-size="14.00">Phase 1: transfer warm&#45;start</text>
<text xml:space="preserve" text-anchor="start" x="8" y="-277.2" font-family="Helvetica,sans-Serif" font-size="14.00">high&#45;resource code/NL &#45;&gt; Python</text>
</g>
<!-- axisL&#45;&gt;p1 -->
<g id="edge3" class="edge">
<title>axisL&#45;&gt;p1</title>
<path fill="none" stroke="black" d="M107.38,-346.08C107.38,-338.56 107.38,-329.67 107.38,-321.27"/>
<polygon fill="black" stroke="black" points="110.88,-321.43 107.38,-311.43 103.88,-321.43 110.88,-321.43"/>
</g>
<!-- p2 -->
<g id="node5" class="node">
<title>p2</title>
<path fill="#f0fdf4" stroke="black" d="M429.62,-309.5C429.62,-309.5 265.12,-309.5 265.12,-309.5 259.12,-309.5 253.12,-303.5 253.12,-297.5 253.12,-297.5 253.12,-283.5 253.12,-283.5 253.12,-277.5 259.12,-271.5 265.12,-271.5 265.12,-271.5 429.62,-271.5 429.62,-271.5 435.62,-271.5 441.62,-277.5 441.62,-283.5 441.62,-283.5 441.62,-297.5 441.62,-297.5 441.62,-303.5 435.62,-309.5 429.62,-309.5"/>
<text xml:space="preserve" text-anchor="start" x="261.12" y="-292.2" font-family="Helvetica,sans-Serif" font-size="14.00">Phase 2: COBOL adaptation</text>
<text xml:space="preserve" text-anchor="start" x="261.12" y="-277.2" font-family="Helvetica,sans-Serif" font-size="14.00">(curriculum over tiers)</text>
</g>
<!-- axisC&#45;&gt;p2 -->
<g id="edge4" class="edge">
<title>axisC&#45;&gt;p2</title>
<path fill="none" stroke="black" d="M347.38,-346.08C347.38,-338.56 347.38,-329.67 347.38,-321.27"/>
<polygon fill="black" stroke="black" points="350.88,-321.43 347.38,-311.43 343.88,-321.43 350.88,-321.43"/>
</g>
<!-- t1 -->
<g id="node6" class="node">
<title>t1</title>
<path fill="#f0fdf4" stroke="black" d="M416.12,-219C416.12,-219 278.62,-219 278.62,-219 272.62,-219 266.62,-213 266.62,-207 266.62,-207 266.62,-193 266.62,-193 266.62,-187 272.62,-181 278.62,-181 278.62,-181 416.12,-181 416.12,-181 422.12,-181 428.12,-187 428.12,-193 428.12,-193 428.12,-207 428.12,-207 428.12,-213 422.12,-219 416.12,-219"/>
<text xml:space="preserve" text-anchor="start" x="274.62" y="-201.7" font-family="Helvetica,sans-Serif" font-size="14.00">Tier: SIMPLE</text>
<text xml:space="preserve" text-anchor="start" x="274.62" y="-186.7" font-family="Helvetica,sans-Serif" font-size="14.00">~62 progs, 94&#45;97% auto</text>
</g>
<!-- p2&#45;&gt;t1 -->
<g id="edge5" class="edge">
<title>p2&#45;&gt;t1</title>
<path fill="none" stroke="black" d="M347.38,-271.16C347.38,-259.42 347.38,-243.91 347.38,-230.46"/>
<polygon fill="black" stroke="black" points="350.88,-230.83 347.38,-220.83 343.88,-230.83 350.88,-230.83"/>
<text xml:space="preserve" text-anchor="middle" x="396.12" y="-240.2" font-family="Times,serif" font-size="14.00">release on plateau</text>
</g>
<!-- t2 -->
<g id="node7" class="node">
<title>t2</title>
<path fill="#fef9c3" stroke="black" d="M223.88,-128.5C223.88,-128.5 108.88,-128.5 108.88,-128.5 102.88,-128.5 96.88,-122.5 96.88,-116.5 96.88,-116.5 96.88,-102.5 96.88,-102.5 96.88,-96.5 102.88,-90.5 108.88,-90.5 108.88,-90.5 223.88,-90.5 223.88,-90.5 229.88,-90.5 235.88,-96.5 235.88,-102.5 235.88,-102.5 235.88,-116.5 235.88,-116.5 235.88,-122.5 229.88,-128.5 223.88,-128.5"/>
<text xml:space="preserve" text-anchor="start" x="104.88" y="-111.2" font-family="Helvetica,sans-Serif" font-size="14.00">Tier: MEDIUM</text>
<text xml:space="preserve" text-anchor="start" x="104.88" y="-96.2" font-family="Helvetica,sans-Serif" font-size="14.00">~220 progs, 78&#45;85%</text>
</g>
<!-- t1&#45;&gt;t2 -->
<g id="edge6" class="edge">
<title>t1&#45;&gt;t2</title>
<path fill="none" stroke="black" d="M287.6,-180.52C273.64,-175.46 259.01,-169.55 245.88,-163 230.12,-155.15 213.72,-144.75 199.94,-135.28"/>
<polygon fill="black" stroke="black" points="202.29,-132.66 192.1,-129.78 198.28,-138.39 202.29,-132.66"/>
<text xml:space="preserve" text-anchor="middle" x="294.62" y="-149.7" font-family="Times,serif" font-size="14.00">release on plateau</text>
</g>
<!-- gold -->
<g id="node9" class="node">
<title>gold</title>
<path fill="#bbf7d0" stroke="black" d="M429.25,-128.5C429.25,-128.5 265.5,-128.5 265.5,-128.5 259.5,-128.5 253.5,-122.5 253.5,-116.5 253.5,-116.5 253.5,-102.5 253.5,-102.5 253.5,-96.5 259.5,-90.5 265.5,-90.5 265.5,-90.5 429.25,-90.5 429.25,-90.5 435.25,-90.5 441.25,-96.5 441.25,-102.5 441.25,-102.5 441.25,-116.5 441.25,-116.5 441.25,-122.5 435.25,-128.5 429.25,-128.5"/>
<text xml:space="preserve" text-anchor="start" x="261.5" y="-111.2" font-family="Helvetica,sans-Serif" font-size="14.00">gold: execution&#45;verified pairs</text>
<text xml:space="preserve" text-anchor="start" x="261.5" y="-96.2" font-family="Helvetica,sans-Serif" font-size="14.00">(GnuCOBOL stdout match)</text>
</g>
<!-- t1&#45;&gt;gold -->
<g id="edge8" class="edge">
<title>t1&#45;&gt;gold</title>
<path fill="none" stroke="black" d="M347.38,-180.66C347.38,-168.92 347.38,-153.41 347.38,-139.96"/>
<polygon fill="black" stroke="black" points="350.88,-140.33 347.38,-130.33 343.88,-140.33 350.88,-140.33"/>
</g>
<!-- silver -->
<g id="node10" class="node">
<title>silver</title>
<path fill="#fde68a" stroke="black" d="M645.5,-128.5C645.5,-128.5 471.25,-128.5 471.25,-128.5 465.25,-128.5 459.25,-122.5 459.25,-116.5 459.25,-116.5 459.25,-102.5 459.25,-102.5 459.25,-96.5 465.25,-90.5 471.25,-90.5 471.25,-90.5 645.5,-90.5 645.5,-90.5 651.5,-90.5 657.5,-96.5 657.5,-102.5 657.5,-102.5 657.5,-116.5 657.5,-116.5 657.5,-122.5 651.5,-128.5 645.5,-128.5"/>
<text xml:space="preserve" text-anchor="start" x="467.25" y="-111.2" font-family="Helvetica,sans-Serif" font-size="14.00">silver: LLM targets (unverified)</text>
<text xml:space="preserve" text-anchor="start" x="467.25" y="-96.2" font-family="Helvetica,sans-Serif" font-size="14.00">early tiers only</text>
</g>
<!-- t1&#45;&gt;silver -->
<g id="edge9" class="edge">
<title>t1&#45;&gt;silver</title>
<path fill="none" stroke="black" d="M391.35,-180.56C424.08,-166.83 468.95,-148.01 503.94,-133.33"/>
<polygon fill="black" stroke="black" points="505.19,-136.6 513.06,-129.51 502.48,-130.15 505.19,-136.6"/>
</g>
<!-- t3 -->
<g id="node8" class="node">
<title>t3</title>
<path fill="#fee2e2" stroke="black" d="M247.12,-38C247.12,-38 85.62,-38 85.62,-38 79.62,-38 73.62,-32 73.62,-26 73.62,-26 73.62,-12 73.62,-12 73.62,-6 79.62,0 85.62,0 85.62,0 247.12,0 247.12,0 253.12,0 259.12,-6 259.12,-12 259.12,-12 259.12,-26 259.12,-26 259.12,-32 253.12,-38 247.12,-38"/>
<text xml:space="preserve" text-anchor="start" x="81.62" y="-20.7" font-family="Helvetica,sans-Serif" font-size="14.00">Tier: HIGH</text>
<text xml:space="preserve" text-anchor="start" x="81.62" y="-5.7" font-family="Helvetica,sans-Serif" font-size="14.00">~177 progs, 52&#45;65%, review</text>
</g>
<!-- t2&#45;&gt;t3 -->
<g id="edge7" class="edge">
<title>t2&#45;&gt;t3</title>
<path fill="none" stroke="black" d="M166.38,-90.16C166.38,-78.42 166.38,-62.91 166.38,-49.46"/>
<polygon fill="black" stroke="black" points="169.88,-49.83 166.38,-39.83 162.88,-49.83 169.88,-49.83"/>
<text xml:space="preserve" text-anchor="middle" x="215.12" y="-59.2" font-family="Times,serif" font-size="14.00">release on plateau</text>
</g>
</g>
</svg>
