<?xml version="1.0" encoding="UTF-8" standalone="no"?>
<!DOCTYPE svg PUBLIC "-//W3C//DTD SVG 1.1//EN"
 "http://www.w3.org/Graphics/SVG/1.1/DTD/svg11.dtd">
<!-- Generated by graphviz version 15.0.0 (20260523.1842)
 -->
<!-- Title: modules Pages: 1 -->
<svg width="6790pt" height="260pt"
 viewBox="0.00 0.00 6790.00 260.00" xmlns="http://www.w3.org/2000/svg" xmlns:xlink="http://www.w3.org/1999/xlink">
<g id="graph0" class="graph" transform="scale(1 1) rotate(0) translate(4 256)">
<title>modules</title>
<polygon fill="white" stroke="none" points="-4,4 -4,-256 6785.62,-256 6785.62,4 -4,4"/>
<!-- m0 -->
<g id="node1" class="node">
<title>m0</title>
<path fill="#1f2937" stroke="black" d="M4164.75,-252C4164.75,-252 3776.75,-252 3776.75,-252 3770.75,-252 3764.75,-246 3764.75,-240 3764.75,-240 3764.75,-228 3764.75,-228 3764.75,-222 3770.75,-216 3776.75,-216 3776.75,-216 4164.75,-216 4164.75,-216 4170.75,-216 4176.75,-222 4176.75,-228 4176.75,-228 4176.75,-240 4176.75,-240 4176.75,-246 4170.75,-252 4164.75,-252"/>
<text xml:space="preserve" text-anchor="middle" x="3970.75" y="-228.95" font-family="Courier,monospace" font-size="14.00" fill="white">T5ForConditionalGeneration\l222,885,888 params\l</text>
</g>
<!-- m1 -->
<g id="node2" class="node">
<title>m1</title>
<path fill="#eef2ff" stroke="black" d="M3158.5,-180C3158.5,-180 2853,-180 2853,-180 2847,-180 2841,-174 2841,-168 2841,-168 2841,-156 2841,-156 2841,-150 2847,-144 2853,-144 2853,-144 3158.5,-144 3158.5,-144 3164.5,-144 3170.5,-150 3170.5,-156 3170.5,-156 3170.5,-168 3170.5,-168 3170.5,-174 3164.5,-180 3158.5,-180"/>
<text xml:space="preserve" text-anchor="middle" x="3005.75" y="-156.95" font-family="Courier,monospace" font-size="14.00">shared: Embedding\l24,656,640 params\l</text>
</g>
<!-- m0&#45;&gt;m1 -->
<g id="edge1" class="edge">
<title>m0&#45;&gt;m1</title>
<path fill="none" stroke="black" d="M3764.52,-220.91C3607.71,-211.3 3386.3,-196.87 3181.86,-180.16"/>
<polygon fill="black" stroke="black" points="3182.36,-176.69 3172.1,-179.36 3181.78,-183.66 3182.36,-176.69"/>
</g>
<!-- m2 -->
<g id="node3" class="node">
<title>m2</title>
<path fill="#eef2ff" stroke="black" d="M3506.5,-180C3506.5,-180 3201,-180 3201,-180 3195,-180 3189,-174 3189,-168 3189,-168 3189,-156 3189,-156 3189,-150 3195,-144 3201,-144 3201,-144 3506.5,-144 3506.5,-144 3512.5,-144 3518.5,-150 3518.5,-156 3518.5,-156 3518.5,-168 3518.5,-168 3518.5,-174 3512.5,-180 3506.5,-180"/>
<text xml:space="preserve" text-anchor="middle" x="3353.75" y="-156.95" font-family="Courier,monospace" font-size="14.00">encoder: T5Stack\l109,610,880 params\l</text>
</g>
<!-- m0&#45;&gt;m2 -->
<g id="edge2" class="edge">
<title>m0&#45;&gt;m2</title>
<path fill="none" stroke="black" d="M3816.65,-215.52C3726.01,-205.23 3611.42,-192.23 3518.93,-181.74"/>
<polygon fill="black" stroke="black" points="3519.59,-178.29 3509.26,-180.64 3518.81,-185.25 3519.59,-178.29"/>
</g>
<!-- m19 -->
<g id="node20" class="node">
<title>m19</title>
<path fill="#eef2ff" stroke="black" d="M4765.5,-180C4765.5,-180 4460,-180 4460,-180 4454,-180 4448,-174 4448,-168 4448,-168 4448,-156 4448,-156 4448,-150 4454,-144 4460,-144 4460,-144 4765.5,-144 4765.5,-144 4771.5,-144 4777.5,-150 4777.5,-156 4777.5,-156 4777.5,-168 4777.5,-168 4777.5,-174 4771.5,-180 4765.5,-180"/>
<text xml:space="preserve" text-anchor="middle" x="4612.75" y="-156.95" font-family="Courier,monospace" font-size="14.00">decoder: T5Stack\l137,931,648 params\l</text>
</g>
<!-- m0&#45;&gt;m19 -->
<g id="edge19" class="edge">
<title>m0&#45;&gt;m19</title>
<path fill="none" stroke="black" d="M4131.1,-215.52C4225.5,-205.22 4344.88,-192.21 4441.17,-181.71"/>
<polygon fill="black" stroke="black" points="4441.43,-185.2 4451,-180.64 4440.67,-178.24 4441.43,-185.2"/>
</g>
<!-- m36 -->
<g id="node37" class="node">
<title>m36</title>
<path fill="#eef2ff" stroke="black" d="M5096.25,-180C5096.25,-180 4807.25,-180 4807.25,-180 4801.25,-180 4795.25,-174 4795.25,-168 4795.25,-168 4795.25,-156 4795.25,-156 4795.25,-150 4801.25,-144 4807.25,-144 4807.25,-144 5096.25,-144 5096.25,-144 5102.25,-144 5108.25,-150 5108.25,-156 5108.25,-156 5108.25,-168 5108.25,-168 5108.25,-174 5102.25,-180 5096.25,-180"/>
<text xml:space="preserve" text-anchor="middle" x="4951.75" y="-156.95" font-family="Courier,monospace" font-size="14.00">lm_head: Linear\l24,656,640 params\l</text>
</g>
<!-- m0&#45;&gt;m36 -->
<g id="edge36" class="edge">
<title>m0&#45;&gt;m36</title>
<path fill="none" stroke="black" d="M4177.16,-221.76C4339.32,-212.41 4571.18,-197.92 4783.61,-180.25"/>
<polygon fill="black" stroke="black" points="4783.82,-183.74 4793.49,-179.42 4783.23,-176.77 4783.82,-183.74"/>
</g>
<!-- m3 -->
<g id="node4" class="node">
<title>m3</title>
<path fill="#eef2ff" stroke="black" d="M1770.25,-108C1770.25,-108 1415.25,-108 1415.25,-108 1409.25,-108 1403.25,-102 1403.25,-96 1403.25,-96 1403.25,-84 1403.25,-84 1403.25,-78 1409.25,-72 1415.25,-72 1415.25,-72 1770.25,-72 1770.25,-72 1776.25,-72 1782.25,-78 1782.25,-84 1782.25,-84 1782.25,-96 1782.25,-96 1782.25,-102 1776.25,-108 1770.25,-108"/>
<text xml:space="preserve" text-anchor="middle" x="1592.75" y="-84.95" font-family="Courier,monospace" font-size="14.00">embed_tokens: Embedding\l24,656,640 params\l</text>
</g>
<!-- m2&#45;&gt;m3 -->
<g id="edge3" class="edge">
<title>m2&#45;&gt;m3</title>
<path fill="none" stroke="black" d="M3188.92,-144.59C3185.84,-144.39 3182.78,-144.19 3179.75,-144 2567.14,-106.18 2409.25,-141.99 1794.07,-108.16"/>
<polygon fill="black" stroke="black" points="1794.37,-104.68 1784.2,-107.62 1793.99,-111.67 1794.37,-104.68"/>
</g>
<!-- m4 -->
<g id="node5" class="node">
<title>m4</title>
<path fill="#eef2ff" stroke="black" d="M2117.5,-108C2117.5,-108 1812,-108 1812,-108 1806,-108 1800,-102 1800,-96 1800,-96 1800,-84 1800,-84 1800,-78 1806,-72 1812,-72 1812,-72 2117.5,-72 2117.5,-72 2123.5,-72 2129.5,-78 2129.5,-84 2129.5,-84 2129.5,-96 2129.5,-96 2129.5,-102 2123.5,-108 2117.5,-108"/>
<text xml:space="preserve" text-anchor="middle" x="1964.75" y="-84.95" font-family="Courier,monospace" font-size="14.00">block: ModuleList\l84,953,472 params\l</text>
</g>
<!-- m2&#45;&gt;m4 -->
<g id="edge4" class="edge">
<title>m2&#45;&gt;m4</title>
<path fill="none" stroke="black" d="M3188.91,-144.67C3185.83,-144.44 3182.78,-144.21 3179.75,-144 2810.9,-117.96 2378.09,-102.74 2141.46,-95.73"/>
<polygon fill="black" stroke="black" points="2141.6,-92.23 2131.5,-95.43 2141.39,-99.23 2141.6,-92.23"/>
</g>
<!-- m17 -->
<g id="node18" class="node">
<title>m17</title>
<path fill="#eef2ff" stroke="black" d="M3364.12,-108C3364.12,-108 3017.38,-108 3017.38,-108 3011.38,-108 3005.38,-102 3005.38,-96 3005.38,-96 3005.38,-84 3005.38,-84 3005.38,-78 3011.38,-72 3017.38,-72 3017.38,-72 3364.12,-72 3364.12,-72 3370.12,-72 3376.12,-78 3376.12,-84 3376.12,-84 3376.12,-96 3376.12,-96 3376.12,-102 3370.12,-108 3364.12,-108"/>
<text xml:space="preserve" text-anchor="middle" x="3190.75" y="-84.95" font-family="Courier,monospace" font-size="14.00">final_layer_norm: T5LayerNorm\l768 params\l</text>
</g>
<!-- m2&#45;&gt;m17 -->
<g id="edge17" class="edge">
<title>m2&#45;&gt;m17</title>
<path fill="none" stroke="black" d="M3313.04,-143.52C3291.37,-134.21 3264.52,-122.68 3241.5,-112.79"/>
<polygon fill="black" stroke="black" points="3243.18,-109.71 3232.62,-108.98 3240.42,-116.14 3243.18,-109.71"/>
</g>
<!-- m18 -->
<g id="node19" class="node">
<title>m18</title>
<path fill="#eef2ff" stroke="black" d="M3629.25,-108C3629.25,-108 3406.25,-108 3406.25,-108 3400.25,-108 3394.25,-102 3394.25,-96 3394.25,-96 3394.25,-84 3394.25,-84 3394.25,-78 3400.25,-72 3406.25,-72 3406.25,-72 3629.25,-72 3629.25,-72 3635.25,-72 3641.25,-78 3641.25,-84 3641.25,-84 3641.25,-96 3641.25,-96 3641.25,-102 3635.25,-108 3629.25,-108"/>
<text xml:space="preserve" text-anchor="middle" x="3517.75" y="-84.95" font-family="Courier,monospace" font-size="14.00">dropout: Dropout\l0 params\l</text>
</g>
<!-- m2&#45;&gt;m18 -->
<g id="edge18" class="edge">
<title>m2&#45;&gt;m18</title>
<path fill="none" stroke="black" d="M3394.71,-143.52C3416.51,-134.21 3443.53,-122.68 3466.69,-112.79"/>
<polygon fill="black" stroke="black" points="3467.81,-116.12 3475.64,-108.98 3465.06,-109.68 3467.81,-116.12"/>
</g>
<!-- m5 -->
<g id="node6" class="node">
<title>m5</title>
<path fill="#eef2ff" stroke="black" d="M251.5,-36C251.5,-36 12,-36 12,-36 6,-36 0,-30 0,-24 0,-24 0,-12 0,-12 0,-6 6,0 12,0 12,0 251.5,0 251.5,0 257.5,0 263.5,-6 263.5,-12 263.5,-12 263.5,-24 263.5,-24 263.5,-30 257.5,-36 251.5,-36"/>
<text xml:space="preserve" text-anchor="middle" x="131.75" y="-12.95" font-family="Courier,monospace" font-size="14.00">0: T5Block\l7,079,808 params\l</text>
</g>
<!-- m4&#45;&gt;m5 -->
<g id="edge5" class="edge">
<title>m4&#45;&gt;m5</title>
<path fill="none" stroke="black" d="M1799.92,-72.58C1796.84,-72.38 1793.78,-72.18 1790.75,-72 1120.91,-31.39 947.8,-83.85 275.25,-36.13"/>
<polygon fill="black" stroke="black" points="275.54,-32.64 265.32,-35.42 275.04,-39.62 275.54,-32.64"/>
</g>
<!-- m6 -->
<g id="node7" class="node">
<title>m6</title>
<path fill="#eef2ff" stroke="black" d="M533.5,-36C533.5,-36 294,-36 294,-36 288,-36 282,-30 282,-24 282,-24 282,-12 282,-12 282,-6 288,0 294,0 294,0 533.5,0 533.5,0 539.5,0 545.5,-6 545.5,-12 545.5,-12 545.5,-24 545.5,-24 545.5,-30 539.5,-36 533.5,-36"/>
<text xml:space="preserve" text-anchor="middle" x="413.75" y="-12.95" font-family="Courier,monospace" font-size="14.00">1: T5Block\l7,079,424 params\l</text>
</g>
<!-- m4&#45;&gt;m6 -->
<g id="edge6" class="edge">
<title>m4&#45;&gt;m6</title>
<path fill="none" stroke="black" d="M1799.92,-72.61C1796.84,-72.39 1793.78,-72.19 1790.75,-72 1246.03,-37.5 1104.72,-76.39 557.17,-36.13"/>
<polygon fill="black" stroke="black" points="557.55,-32.65 547.32,-35.4 557.03,-39.63 557.55,-32.65"/>
</g>
<!-- m7 -->
<g id="node8" class="node">
<title>m7</title>
<path fill="#eef2ff" stroke="black" d="M815.5,-36C815.5,-36 576,-36 576,-36 570,-36 564,-30 564,-24 564,-24 564,-12 564,-12 564,-6 570,0 576,0 576,0 815.5,0 815.5,0 821.5,0 827.5,-6 827.5,-12 827.5,-12 827.5,-24 827.5,-24 827.5,-30 821.5,-36 815.5,-36"/>
<text xml:space="preserve" text-anchor="middle" x="695.75" y="-12.95" font-family="Courier,monospace" font-size="14.00">2: T5Block\l7,079,424 params\l</text>
</g>
<!-- m4&#45;&gt;m7 -->
<g id="edge7" class="edge">
<title>m4&#45;&gt;m7</title>
<path fill="none" stroke="black" d="M1799.91,-72.64C1796.84,-72.42 1793.78,-72.2 1790.75,-72 1371.14,-43.61 1261.65,-68.97 839.12,-36.14"/>
<polygon fill="black" stroke="black" points="839.56,-32.67 829.32,-35.37 839.02,-39.65 839.56,-32.67"/>
</g>
<!-- m8 -->
<g id="node9" class="node">
<title>m8</title>
<path fill="#eef2ff" stroke="black" d="M1097.5,-36C1097.5,-36 858,-36 858,-36 852,-36 846,-30 846,-24 846,-24 846,-12 846,-12 846,-6 852,0 858,0 858,0 1097.5,0 1097.5,0 1103.5,0 1109.5,-6 1109.5,-12 1109.5,-12 1109.5,-24 1109.5,-24 1109.5,-30 1103.5,-36 1097.5,-36"/>
<text xml:space="preserve" text-anchor="middle" x="977.75" y="-12.95" font-family="Courier,monospace" font-size="14.00">3: T5Block\l7,079,424 params\l</text>
</g>
<!-- m4&#45;&gt;m8 -->
<g id="edge8" class="edge">
<title>m4&#45;&gt;m8</title>
<path fill="none" stroke="black" d="M1799.91,-72.71C1796.83,-72.47 1793.78,-72.23 1790.75,-72 1496.15,-49.73 1418.6,-61.62 1120.95,-36.15"/>
<polygon fill="black" stroke="black" points="1121.59,-32.7 1111.32,-35.32 1120.99,-39.67 1121.59,-32.7"/>
</g>
<!-- m9 -->
<g id="node10" class="node">
<title>m9</title>
<path fill="#eef2ff" stroke="black" d="M1379.5,-36C1379.5,-36 1140,-36 1140,-36 1134,-36 1128,-30 1128,-24 1128,-24 1128,-12 1128,-12 1128,-6 1134,0 1140,0 1140,0 1379.5,0 1379.5,0 1385.5,0 1391.5,-6 1391.5,-12 1391.5,-12 1391.5,-24 1391.5,-24 1391.5,-30 1385.5,-36 1379.5,-36"/>
<text xml:space="preserve" text-anchor="middle" x="1259.75" y="-12.95" font-family="Courier,monospace" font-size="14.00">4: T5Block\l7,079,424 params\l</text>
</g>
<!-- m4&#45;&gt;m9 -->
<g id="edge9" class="edge">
<title>m4&#45;&gt;m9</title>
<path fill="none" stroke="black" d="M1799.9,-72.87C1796.82,-72.58 1793.77,-72.29 1790.75,-72 1621.1,-55.88 1575.73,-54.47 1403.12,-36.24"/>
<polygon fill="black" stroke="black" points="1403.65,-32.77 1393.34,-35.2 1402.91,-39.73 1403.65,-32.77"/>
</g>
<!-- m10 -->
<g id="node11" class="node">
<title>m10</title>
<path fill="#eef2ff" stroke="black" d="M1661.5,-36C1661.5,-36 1422,-36 1422,-36 1416,-36 1410,-30 1410,-24 1410,-24 1410,-12 1410,-12 1410,-6 1416,0 1422,0 1422,0 1661.5,0 1661.5,0 1667.5,0 1673.5,-6 1673.5,-12 1673.5,-12 1673.5,-24 1673.5,-24 1673.5,-30 1667.5,-36 1661.5,-36"/>
<text xml:space="preserve" text-anchor="middle" x="1541.75" y="-12.95" font-family="Courier,monospace" font-size="14.00">5: T5Block\l7,079,424 params\l</text>
</g>
<!-- m4&#45;&gt;m10 -->
<g id="edge10" class="edge">
<title>m4&#45;&gt;m10</title>
<path fill="none" stroke="black" d="M1859.1,-71.52C1798.04,-61.41 1721.12,-48.68 1658.31,-38.29"/>
<polygon fill="black" stroke="black" points="1659.08,-34.87 1648.65,-36.69 1657.94,-41.78 1659.08,-34.87"/>
</g>
<!-- m11 -->
<g id="node12" class="node">
<title>m11</title>
<path fill="#eef2ff" stroke="black" d="M1943.5,-36C1943.5,-36 1704,-36 1704,-36 1698,-36 1692,-30 1692,-24 1692,-24 1692,-12 1692,-12 1692,-6 1698,0 1704,0 1704,0 1943.5,0 1943.5,0 1949.5,0 1955.5,-6 1955.5,-12 1955.5,-12 1955.5,-24 1955.5,-24 1955.5,-30 1949.5,-36 1943.5,-36"/>
<text xml:space="preserve" text-anchor="middle" x="1823.75" y="-12.95" font-family="Courier,monospace" font-size="14.00">6: T5Block\l7,079,424 params\l</text>
</g>
<!-- m4&#45;&gt;m11 -->
<g id="edge11" class="edge">
<title>m4&#45;&gt;m11</title>
<path fill="none" stroke="black" d="M1929.53,-71.52C1911.14,-62.39 1888.43,-51.11 1868.78,-41.35"/>
<polygon fill="black" stroke="black" points="1870.39,-38.25 1859.87,-36.93 1867.27,-44.52 1870.39,-38.25"/>
</g>
<!-- m12 -->
<g id="node13" class="node">
<title>m12</title>
<path fill="#eef2ff" stroke="black" d="M2225.5,-36C2225.5,-36 1986,-36 1986,-36 1980,-36 1974,-30 1974,-24 1974,-24 1974,-12 1974,-12 1974,-6 1980,0 1986,0 1986,0 2225.5,0 2225.5,0 2231.5,0 2237.5,-6 2237.5,-12 2237.5,-12 2237.5,-24 2237.5,-24 2237.5,-30 2231.5,-36 2225.5,-36"/>
<text xml:space="preserve" text-anchor="middle" x="2105.75" y="-12.95" font-family="Courier,monospace" font-size="14.00">7: T5Block\l7,079,424 params\l</text>
</g>
<!-- m4&#45;&gt;m12 -->
<g id="edge12" class="edge">
<title>m4&#45;&gt;m12</title>
<path fill="none" stroke="black" d="M1999.97,-71.52C2018.36,-62.39 2041.07,-51.11 2060.72,-41.35"/>
<polygon fill="black" stroke="black" points="2062.23,-44.52 2069.63,-36.93 2059.11,-38.25 2062.23,-44.52"/>
</g>
<!-- m13 -->
<g id="node14" class="node">
<title>m13</title>
<path fill="#eef2ff" stroke="black" d="M2507.5,-36C2507.5,-36 2268,-36 2268,-36 2262,-36 2256,-30 2256,-24 2256,-24 2256,-12 2256,-12 2256,-6 2262,0 2268,0 2268,0 2507.5,0 2507.5,0 2513.5,0 2519.5,-6 2519.5,-12 2519.5,-12 2519.5,-24 2519.5,-24 2519.5,-30 2513.5,-36 2507.5,-36"/>
<text xml:space="preserve" text-anchor="middle" x="2387.75" y="-12.95" font-family="Courier,monospace" font-size="14.00">8: T5Block\l7,079,424 params\l</text>
</g>
<!-- m4&#45;&gt;m13 -->
<g id="edge13" class="edge">
<title>m4&#45;&gt;m13</title>
<path fill="none" stroke="black" d="M2070.4,-71.52C2131.46,-61.41 2208.38,-48.68 2271.19,-38.29"/>
<polygon fill="black" stroke="black" points="2271.56,-41.78 2280.85,-36.69 2270.42,-34.87 2271.56,-41.78"/>
</g>
<!-- m14 -->
<g id="node15" class="node">
<title>m14</title>
<path fill="#eef2ff" stroke="black" d="M2789.5,-36C2789.5,-36 2550,-36 2550,-36 2544,-36 2538,-30 2538,-24 2538,-24 2538,-12 2538,-12 2538,-6 2544,0 2550,0 2550,0 2789.5,0 2789.5,0 2795.5,0 2801.5,-6 2801.5,-12 2801.5,-12 2801.5,-24 2801.5,-24 2801.5,-30 2795.5,-36 2789.5,-36"/>
<text xml:space="preserve" text-anchor="middle" x="2669.75" y="-12.95" font-family="Courier,monospace" font-size="14.00">9: T5Block\l7,079,424 params\l</text>
</g>
<!-- m4&#45;&gt;m14 -->
<g id="edge14" class="edge">
<title>m4&#45;&gt;m14</title>
<path fill="none" stroke="black" d="M2129.91,-74.63C2239.43,-64.83 2386.66,-51.13 2526.34,-36.24"/>
<polygon fill="black" stroke="black" points="2526.59,-39.74 2536.16,-35.19 2525.85,-32.78 2526.59,-39.74"/>
</g>
<!-- m15 -->
<g id="node16" class="node">
<title>m15</title>
<path fill="#eef2ff" stroke="black" d="M3079.62,-36C3079.62,-36 2831.88,-36 2831.88,-36 2825.88,-36 2819.88,-30 2819.88,-24 2819.88,-24 2819.88,-12 2819.88,-12 2819.88,-6 2825.88,0 2831.88,0 2831.88,0 3079.62,0 3079.62,0 3085.62,0 3091.62,-6 3091.62,-12 3091.62,-12 3091.62,-24 3091.62,-24 3091.62,-30 3085.62,-36 3079.62,-36"/>
<text xml:space="preserve" text-anchor="middle" x="2955.75" y="-12.95" font-family="Courier,monospace" font-size="14.00">10: T5Block\l7,079,424 params\l</text>
</g>
<!-- m4&#45;&gt;m15 -->
<g id="edge15" class="edge">
<title>m4&#45;&gt;m15</title>
<path fill="none" stroke="black" d="M2129.9,-81.3C2297.99,-72.86 2566.31,-57.69 2808.4,-36.18"/>
<polygon fill="black" stroke="black" points="2808.39,-39.7 2818.04,-35.32 2807.77,-32.73 2808.39,-39.7"/>
</g>
<!-- m16 -->
<g id="node17" class="node">
<title>m16</title>
<path fill="#eef2ff" stroke="black" d="M3369.62,-36C3369.62,-36 3121.88,-36 3121.88,-36 3115.88,-36 3109.88,-30 3109.88,-24 3109.88,-24 3109.88,-12 3109.88,-12 3109.88,-6 3115.88,0 3121.88,0 3121.88,0 3369.62,0 3369.62,0 3375.62,0 3381.62,-6 3381.62,-12 3381.62,-12 3381.62,-24 3381.62,-24 3381.62,-30 3375.62,-36 3369.62,-36"/>
<text xml:space="preserve" text-anchor="middle" x="3245.75" y="-12.95" font-family="Courier,monospace" font-size="14.00">11: T5Block\l7,079,424 params\l</text>
</g>
<!-- m4&#45;&gt;m16 -->
<g id="edge16" class="edge">
<title>m4&#45;&gt;m16</title>
<path fill="none" stroke="black" d="M2129.59,-84.93C2348.45,-78.71 2747.21,-64.53 3098.14,-36.18"/>
<polygon fill="black" stroke="black" points="3098.36,-39.67 3108.04,-35.37 3097.79,-32.69 3098.36,-39.67"/>
</g>
<!-- m20 -->
<g id="node21" class="node">
<title>m20</title>
<path fill="#eef2ff" stroke="black" d="M4602.25,-108C4602.25,-108 4247.25,-108 4247.25,-108 4241.25,-108 4235.25,-102 4235.25,-96 4235.25,-96 4235.25,-84 4235.25,-84 4235.25,-78 4241.25,-72 4247.25,-72 4247.25,-72 4602.25,-72 4602.25,-72 4608.25,-72 4614.25,-78 4614.25,-84 4614.25,-84 4614.25,-96 4614.25,-96 4614.25,-102 4608.25,-108 4602.25,-108"/>
<text xml:space="preserve" text-anchor="middle" x="4424.75" y="-84.95" font-family="Courier,monospace" font-size="14.00">embed_tokens: Embedding\l24,656,640 params\l</text>
</g>
<!-- m19&#45;&gt;m20 -->
<g id="edge20" class="edge">
<title>m19&#45;&gt;m20</title>
<path fill="none" stroke="black" d="M4565.79,-143.52C4540.46,-134.08 4508.99,-122.37 4482.21,-112.39"/>
<polygon fill="black" stroke="black" points="4483.44,-109.12 4472.85,-108.91 4481,-115.68 4483.44,-109.12"/>
</g>
<!-- m21 -->
<g id="node22" class="node">
<title>m21</title>
<path fill="#eef2ff" stroke="black" d="M4957.62,-108C4957.62,-108 4643.88,-108 4643.88,-108 4637.88,-108 4631.88,-102 4631.88,-96 4631.88,-96 4631.88,-84 4631.88,-84 4631.88,-78 4637.88,-72 4643.88,-72 4643.88,-72 4957.62,-72 4957.62,-72 4963.62,-72 4969.62,-78 4969.62,-84 4969.62,-84 4969.62,-96 4969.62,-96 4969.62,-102 4963.62,-108 4957.62,-108"/>
<text xml:space="preserve" text-anchor="middle" x="4800.75" y="-84.95" font-family="Courier,monospace" font-size="14.00">block: ModuleList\l113,274,240 params\l</text>
</g>
<!-- m19&#45;&gt;m21 -->
<g id="edge21" class="edge">
<title>m19&#45;&gt;m21</title>
<path fill="none" stroke="black" d="M4659.71,-143.52C4685.04,-134.08 4716.51,-122.37 4743.29,-112.39"/>
<polygon fill="black" stroke="black" points="4744.5,-115.68 4752.65,-108.91 4742.06,-109.12 4744.5,-115.68"/>
</g>
<!-- m34 -->
<g id="node35" class="node">
<title>m34</title>
<path fill="#eef2ff" stroke="black" d="M5346.12,-108C5346.12,-108 4999.38,-108 4999.38,-108 4993.38,-108 4987.38,-102 4987.38,-96 4987.38,-96 4987.38,-84 4987.38,-84 4987.38,-78 4993.38,-72 4999.38,-72 4999.38,-72 5346.12,-72 5346.12,-72 5352.12,-72 5358.12,-78 5358.12,-84 5358.12,-84 5358.12,-96 5358.12,-96 5358.12,-102 5352.12,-108 5346.12,-108"/>
<text xml:space="preserve" text-anchor="middle" x="5172.75" y="-84.95" font-family="Courier,monospace" font-size="14.00">final_layer_norm: T5LayerNorm\l768 params\l</text>
</g>
<!-- m19&#45;&gt;m34 -->
<g id="edge34" class="edge">
<title>m19&#45;&gt;m34</title>
<path fill="none" stroke="black" d="M4752.62,-143.52C4834.54,-133.28 4938.02,-120.34 5021.79,-109.87"/>
<polygon fill="black" stroke="black" points="5022.22,-113.34 5031.71,-108.63 5021.35,-106.4 5022.22,-113.34"/>
</g>
<!-- m35 -->
<g id="node36" class="node">
<title>m35</title>
<path fill="#eef2ff" stroke="black" d="M5611.25,-108C5611.25,-108 5388.25,-108 5388.25,-108 5382.25,-108 5376.25,-102 5376.25,-96 5376.25,-96 5376.25,-84 5376.25,-84 5376.25,-78 5382.25,-72 5388.25,-72 5388.25,-72 5611.25,-72 5611.25,-72 5617.25,-72 5623.25,-78 5623.25,-84 5623.25,-84 5623.25,-96 5623.25,-96 5623.25,-102 5617.25,-108 5611.25,-108"/>
<text xml:space="preserve" text-anchor="middle" x="5499.75" y="-84.95" font-family="Courier,monospace" font-size="14.00">dropout: Dropout\l0 params\l</text>
</g>
<!-- m19&#45;&gt;m35 -->
<g id="edge35" class="edge">
<title>m19&#45;&gt;m35</title>
<path fill="none" stroke="black" d="M4777.59,-144.75C4780.67,-144.49 4783.72,-144.24 4786.75,-144 5040.56,-123.73 5107.74,-132.14 5364.7,-108.15"/>
<polygon fill="black" stroke="black" points="5364.75,-111.66 5374.38,-107.24 5364.1,-104.7 5364.75,-111.66"/>
</g>
<!-- m22 -->
<g id="node23" class="node">
<title>m22</title>
<path fill="#eef2ff" stroke="black" d="M3651.5,-36C3651.5,-36 3412,-36 3412,-36 3406,-36 3400,-30 3400,-24 3400,-24 3400,-12 3400,-12 3400,-6 3406,0 3412,0 3412,0 3651.5,0 3651.5,0 3657.5,0 3663.5,-6 3663.5,-12 3663.5,-12 3663.5,-24 3663.5,-24 3663.5,-30 3657.5,-36 3651.5,-36"/>
<text xml:space="preserve" text-anchor="middle" x="3531.75" y="-12.95" font-family="Courier,monospace" font-size="14.00">0: T5Block\l9,439,872 params\l</text>
</g>
<!-- m21&#45;&gt;m22 -->
<g id="edge22" class="edge">
<title>m21&#45;&gt;m22</title>
<path fill="none" stroke="black" d="M4631.66,-72.55C4629.01,-72.36 4626.37,-72.18 4623.75,-72 4205.43,-44.02 4096.31,-68.9 3675.09,-36.14"/>
<polygon fill="black" stroke="black" points="3675.56,-32.67 3665.32,-35.37 3675.02,-39.65 3675.56,-32.67"/>
</g>
<!-- m23 -->
<g id="node24" class="node">
<title>m23</title>
<path fill="#eef2ff" stroke="black" d="M3933.5,-36C3933.5,-36 3694,-36 3694,-36 3688,-36 3682,-30 3682,-24 3682,-24 3682,-12 3682,-12 3682,-6 3688,0 3694,0 3694,0 3933.5,0 3933.5,0 3939.5,0 3945.5,-6 3945.5,-12 3945.5,-12 3945.5,-24 3945.5,-24 3945.5,-30 3939.5,-36 3933.5,-36"/>
<text xml:space="preserve" text-anchor="middle" x="3813.75" y="-12.95" font-family="Courier,monospace" font-size="14.00">1: T5Block\l9,439,488 params\l</text>
</g>
<!-- m21&#45;&gt;m23 -->
<g id="edge23" class="edge">
<title>m21&#45;&gt;m23</title>
<path fill="none" stroke="black" d="M4631.66,-72.6C4629,-72.4 4626.37,-72.2 4623.75,-72 4330.44,-50.03 4253.27,-61.55 3956.9,-36.15"/>
<polygon fill="black" stroke="black" points="3957.59,-32.7 3947.32,-35.32 3956.99,-39.67 3957.59,-32.7"/>
</g>
<!-- m24 -->
<g id="node25" class="node">
<title>m24</title>
<path fill="#eef2ff" stroke="black" d="M4215.5,-36C4215.5,-36 3976,-36 3976,-36 3970,-36 3964,-30 3964,-24 3964,-24 3964,-12 3964,-12 3964,-6 3970,0 3976,0 3976,0 4215.5,0 4215.5,0 4221.5,0 4227.5,-6 4227.5,-12 4227.5,-12 4227.5,-24 4227.5,-24 4227.5,-30 4221.5,-36 4215.5,-36"/>
<text xml:space="preserve" text-anchor="middle" x="4095.75" y="-12.95" font-family="Courier,monospace" font-size="14.00">2: T5Block\l9,439,488 params\l</text>
</g>
<!-- m21&#45;&gt;m24 -->
<g id="edge24" class="edge">
<title>m21&#45;&gt;m24</title>
<path fill="none" stroke="black" d="M4631.65,-72.75C4629,-72.5 4626.36,-72.25 4623.75,-72 4455.38,-56.08 4410.39,-54.41 4239.03,-36.23"/>
<polygon fill="black" stroke="black" points="4239.65,-32.77 4229.34,-35.2 4238.91,-39.73 4239.65,-32.77"/>
</g>
<!-- m25 -->
<g id="node26" class="node">
<title>m25</title>
<path fill="#eef2ff" stroke="black" d="M4497.5,-36C4497.5,-36 4258,-36 4258,-36 4252,-36 4246,-30 4246,-24 4246,-24 4246,-12 4246,-12 4246,-6 4252,0 4258,0 4258,0 4497.5,0 4497.5,0 4503.5,0 4509.5,-6 4509.5,-12 4509.5,-12 4509.5,-24 4509.5,-24 4509.5,-30 4503.5,-36 4497.5,-36"/>
<text xml:space="preserve" text-anchor="middle" x="4377.75" y="-12.95" font-family="Courier,monospace" font-size="14.00">3: T5Block\l9,439,488 params\l</text>
</g>
<!-- m21&#45;&gt;m25 -->
<g id="edge25" class="edge">
<title>m21&#45;&gt;m25</title>
<path fill="none" stroke="black" d="M4695.1,-71.52C4634.04,-61.41 4557.12,-48.68 4494.31,-38.29"/>
<polygon fill="black" stroke="black" points="4495.08,-34.87 4484.65,-36.69 4493.94,-41.78 4495.08,-34.87"/>
</g>
<!-- m26 -->
<g id="node27" class="node">
<title>m26</title>
<path fill="#eef2ff" stroke="black" d="M4779.5,-36C4779.5,-36 4540,-36 4540,-36 4534,-36 4528,-30 4528,-24 4528,-24 4528,-12 4528,-12 4528,-6 4534,0 4540,0 4540,0 4779.5,0 4779.5,0 4785.5,0 4791.5,-6 4791.5,-12 4791.5,-12 4791.5,-24 4791.5,-24 4791.5,-30 4785.5,-36 4779.5,-36"/>
<text xml:space="preserve" text-anchor="middle" x="4659.75" y="-12.95" font-family="Courier,monospace" font-size="14.00">4: T5Block\l9,439,488 params\l</text>
</g>
<!-- m21&#45;&gt;m26 -->
<g id="edge26" class="edge">
<title>m21&#45;&gt;m26</title>
<path fill="none" stroke="black" d="M4765.53,-71.52C4747.14,-62.39 4724.43,-51.11 4704.78,-41.35"/>
<polygon fill="black" stroke="black" points="4706.39,-38.25 4695.87,-36.93 4703.27,-44.52 4706.39,-38.25"/>
</g>
<!-- m27 -->
<g id="node28" class="node">
<title>m27</title>
<path fill="#eef2ff" stroke="black" d="M5061.5,-36C5061.5,-36 4822,-36 4822,-36 4816,-36 4810,-30 4810,-24 4810,-24 4810,-12 4810,-12 4810,-6 4816,0 4822,0 4822,0 5061.5,0 5061.5,0 5067.5,0 5073.5,-6 5073.5,-12 5073.5,-12 5073.5,-24 5073.5,-24 5073.5,-30 5067.5,-36 5061.5,-36"/>
<text xml:space="preserve" text-anchor="middle" x="4941.75" y="-12.95" font-family="Courier,monospace" font-size="14.00">5: T5Block\l9,439,488 params\l</text>
</g>
<!-- m21&#45;&gt;m27 -->
<g id="edge27" class="edge">
<title>m21&#45;&gt;m27</title>
<path fill="none" stroke="black" d="M4835.97,-71.52C4854.36,-62.39 4877.07,-51.11 4896.72,-41.35"/>
<polygon fill="black" stroke="black" points="4898.23,-44.52 4905.63,-36.93 4895.11,-38.25 4898.23,-44.52"/>
</g>
<!-- m28 -->
<g id="node29" class="node">
<title>m28</title>
<path fill="#eef2ff" stroke="black" d="M5343.5,-36C5343.5,-36 5104,-36 5104,-36 5098,-36 5092,-30 5092,-24 5092,-24 5092,-12 5092,-12 5092,-6 5098,0 5104,0 5104,0 5343.5,0 5343.5,0 5349.5,0 5355.5,-6 5355.5,-12 5355.5,-12 5355.5,-24 5355.5,-24 5355.5,-30 5349.5,-36 5343.5,-36"/>
<text xml:space="preserve" text-anchor="middle" x="5223.75" y="-12.95" font-family="Courier,monospace" font-size="14.00">6: T5Block\l9,439,488 params\l</text>
</g>
<!-- m21&#45;&gt;m28 -->
<g id="edge28" class="edge">
<title>m21&#45;&gt;m28</title>
<path fill="none" stroke="black" d="M4906.4,-71.52C4967.46,-61.41 5044.38,-48.68 5107.19,-38.29"/>
<polygon fill="black" stroke="black" points="5107.56,-41.78 5116.85,-36.69 5106.42,-34.87 5107.56,-41.78"/>
</g>
<!-- m29 -->
<g id="node30" class="node">
<title>m29</title>
<path fill="#eef2ff" stroke="black" d="M5625.5,-36C5625.5,-36 5386,-36 5386,-36 5380,-36 5374,-30 5374,-24 5374,-24 5374,-12 5374,-12 5374,-6 5380,0 5386,0 5386,0 5625.5,0 5625.5,0 5631.5,0 5637.5,-6 5637.5,-12 5637.5,-12 5637.5,-24 5637.5,-24 5637.5,-30 5631.5,-36 5625.5,-36"/>
<text xml:space="preserve" text-anchor="middle" x="5505.75" y="-12.95" font-family="Courier,monospace" font-size="14.00">7: T5Block\l9,439,488 params\l</text>
</g>
<!-- m21&#45;&gt;m29 -->
<g id="edge29" class="edge">
<title>m21&#45;&gt;m29</title>
<path fill="none" stroke="black" d="M4969.87,-72.84C4972.85,-72.56 4975.81,-72.28 4978.75,-72 5146.6,-56.16 5191.51,-54.38 5362.24,-36.25"/>
<polygon fill="black" stroke="black" points="5362.59,-39.74 5372.16,-35.19 5361.85,-32.77 5362.59,-39.74"/>
</g>
<!-- m30 -->
<g id="node31" class="node">
<title>m30</title>
<path fill="#eef2ff" stroke="black" d="M5907.5,-36C5907.5,-36 5668,-36 5668,-36 5662,-36 5656,-30 5656,-24 5656,-24 5656,-12 5656,-12 5656,-6 5662,0 5668,0 5668,0 5907.5,0 5907.5,0 5913.5,0 5919.5,-6 5919.5,-12 5919.5,-12 5919.5,-24 5919.5,-24 5919.5,-30 5913.5,-36 5907.5,-36"/>
<text xml:space="preserve" text-anchor="middle" x="5787.75" y="-12.95" font-family="Courier,monospace" font-size="14.00">8: T5Block\l9,439,488 params\l</text>
</g>
<!-- m21&#45;&gt;m30 -->
<g id="edge30" class="edge">
<title>m21&#45;&gt;m30</title>
<path fill="none" stroke="black" d="M4969.85,-72.68C4972.84,-72.45 4975.81,-72.22 4978.75,-72 5271.63,-50.13 5348.68,-61.52 5644.61,-36.15"/>
<polygon fill="black" stroke="black" points="5644.51,-39.67 5654.18,-35.32 5643.91,-32.7 5644.51,-39.67"/>
</g>
<!-- m31 -->
<g id="node32" class="node">
<title>m31</title>
<path fill="#eef2ff" stroke="black" d="M6189.5,-36C6189.5,-36 5950,-36 5950,-36 5944,-36 5938,-30 5938,-24 5938,-24 5938,-12 5938,-12 5938,-6 5944,0 5950,0 5950,0 6189.5,0 6189.5,0 6195.5,0 6201.5,-6 6201.5,-12 6201.5,-12 6201.5,-24 6201.5,-24 6201.5,-30 6195.5,-36 6189.5,-36"/>
<text xml:space="preserve" text-anchor="middle" x="6069.75" y="-12.95" font-family="Courier,monospace" font-size="14.00">9: T5Block\l9,439,488 params\l</text>
</g>
<!-- m21&#45;&gt;m31 -->
<g id="edge31" class="edge">
<title>m21&#45;&gt;m31</title>
<path fill="none" stroke="black" d="M4969.85,-72.61C4972.84,-72.4 4975.81,-72.2 4978.75,-72 5396.63,-44.15 5505.63,-68.87 5926.42,-36.14"/>
<polygon fill="black" stroke="black" points="5926.48,-39.65 5936.18,-35.37 5925.94,-32.67 5926.48,-39.65"/>
</g>
<!-- m32 -->
<g id="node33" class="node">
<title>m32</title>
<path fill="#eef2ff" stroke="black" d="M6479.62,-36C6479.62,-36 6231.88,-36 6231.88,-36 6225.88,-36 6219.88,-30 6219.88,-24 6219.88,-24 6219.88,-12 6219.88,-12 6219.88,-6 6225.88,0 6231.88,0 6231.88,0 6479.62,0 6479.62,0 6485.62,0 6491.62,-6 6491.62,-12 6491.62,-12 6491.62,-24 6491.62,-24 6491.62,-30 6485.62,-36 6479.62,-36"/>
<text xml:space="preserve" text-anchor="middle" x="6355.75" y="-12.95" font-family="Courier,monospace" font-size="14.00">10: T5Block\l9,439,488 params\l</text>
</g>
<!-- m21&#45;&gt;m32 -->
<g id="edge32" class="edge">
<title>m21&#45;&gt;m32</title>
<path fill="none" stroke="black" d="M4969.85,-72.58C4972.84,-72.38 4975.81,-72.18 4978.75,-72 5521.74,-38.17 5662.5,-75.42 6208.23,-36.14"/>
<polygon fill="black" stroke="black" points="6208.33,-39.64 6218.05,-35.43 6207.82,-32.66 6208.33,-39.64"/>
</g>
<!-- m33 -->
<g id="node34" class="node">
<title>m33</title>
<path fill="#eef2ff" stroke="black" d="M6769.62,-36C6769.62,-36 6521.88,-36 6521.88,-36 6515.88,-36 6509.88,-30 6509.88,-24 6509.88,-24 6509.88,-12 6509.88,-12 6509.88,-6 6515.88,0 6521.88,0 6521.88,0 6769.62,0 6769.62,0 6775.62,0 6781.62,-6 6781.62,-12 6781.62,-12 6781.62,-24 6781.62,-24 6781.62,-30 6775.62,-36 6769.62,-36"/>
<text xml:space="preserve" text-anchor="middle" x="6645.75" y="-12.95" font-family="Courier,monospace" font-size="14.00">11: T5Block\l9,439,488 params\l</text>
</g>
<!-- m21&#45;&gt;m33 -->
<g id="edge33" class="edge">
<title>m21&#45;&gt;m33</title>
<path fill="none" stroke="black" d="M4969.84,-72.56C4972.84,-72.36 4975.81,-72.18 4978.75,-72 5650.4,-32.04 5823.84,-82.87 6498.09,-36.14"/>
<polygon fill="black" stroke="black" points="6498.32,-39.63 6508.05,-35.45 6497.83,-32.65 6498.32,-39.63"/>
</g>
</g>
</svg>
